<mxfile host="Electron" modified="2024-03-13T10:02:35.988Z" agent="Mozilla/5.0 (X11; Linux x86_64) AppleWebKit/537.36 (KHTML, like Gecko) draw.io/23.1.5 Chrome/120.0.6099.109 Electron/28.1.0 Safari/537.36" etag="qmNhmyb7PxIcLn-XOQ6B" version="23.1.5" type="device">
  <diagram name="Page-1" id="oHCAZEYasSKk8ks6kOm1">
    <mxGraphModel dx="522" dy="963" grid="1" gridSize="10" guides="1" tooltips="1" connect="1" arrows="1" fold="1" page="1" pageScale="1" pageWidth="1169" pageHeight="827" math="0" shadow="0">
      <root>
        <mxCell id="0" />
        <mxCell id="1" parent="0" />
        <mxCell id="IR5VrkFibrSQRzGEV4Nf-76" value="task store (redis)" style="rounded=0;whiteSpace=wrap;html=1;fillColor=#f5f5f5;fontColor=#333333;strokeColor=#666666;" parent="1" vertex="1">
          <mxGeometry x="354.5" y="530" width="120" height="60" as="geometry" />
        </mxCell>
        <mxCell id="IR5VrkFibrSQRzGEV4Nf-37" value="" style="rounded=0;whiteSpace=wrap;html=1;strokeWidth=1;fillColor=#d5e8d4;strokeColor=#82b366;" parent="1" vertex="1">
          <mxGeometry x="423" y="275" width="290" height="155" as="geometry" />
        </mxCell>
        <mxCell id="IR5VrkFibrSQRzGEV4Nf-25" style="rounded=0;orthogonalLoop=1;jettySize=auto;html=1;exitX=0.75;exitY=1;exitDx=0;exitDy=0;entryX=0.188;entryY=0;entryDx=0;entryDy=0;startArrow=classic;startFill=1;entryPerimeter=0;strokeWidth=1;" parent="1" source="IR5VrkFibrSQRzGEV4Nf-1" target="IR5VrkFibrSQRzGEV4Nf-21" edge="1">
          <mxGeometry relative="1" as="geometry" />
        </mxCell>
        <mxCell id="IR5VrkFibrSQRzGEV4Nf-1" value="RESTful" style="swimlane;horizontal=0;whiteSpace=wrap;html=1;strokeWidth=1;fillColor=#d5e8d4;strokeColor=#82b366;fillStyle=auto;swimlaneFillColor=default;" parent="1" vertex="1">
          <mxGeometry x="254" y="303" width="140" height="80" as="geometry" />
        </mxCell>
        <mxCell id="IR5VrkFibrSQRzGEV4Nf-2" value="API server" style="text;html=1;align=center;verticalAlign=middle;resizable=0;points=[];autosize=1;strokeColor=none;fillColor=none;strokeWidth=1;" parent="IR5VrkFibrSQRzGEV4Nf-1" vertex="1">
          <mxGeometry x="37" y="25" width="80" height="30" as="geometry" />
        </mxCell>
        <mxCell id="IR5VrkFibrSQRzGEV4Nf-36" value="" style="image;sketch=0;aspect=fixed;html=1;points=[];align=center;fontSize=12;image=img/lib/mscae/Docker.svg;strokeWidth=1;" parent="IR5VrkFibrSQRzGEV4Nf-1" vertex="1">
          <mxGeometry x="111" y="5" width="24.39" height="20" as="geometry" />
        </mxCell>
        <mxCell id="IR5VrkFibrSQRzGEV4Nf-11" style="rounded=0;orthogonalLoop=1;jettySize=auto;html=1;exitX=1;exitY=0.25;exitDx=0;exitDy=0;entryX=0;entryY=0.5;entryDx=0;entryDy=0;strokeWidth=1;" parent="1" source="IR5VrkFibrSQRzGEV4Nf-8" target="IR5VrkFibrSQRzGEV4Nf-9" edge="1">
          <mxGeometry relative="1" as="geometry" />
        </mxCell>
        <mxCell id="IR5VrkFibrSQRzGEV4Nf-13" style="edgeStyle=orthogonalEdgeStyle;rounded=0;orthogonalLoop=1;jettySize=auto;html=1;exitX=1;exitY=0.5;exitDx=0;exitDy=0;strokeWidth=1;" parent="1" source="IR5VrkFibrSQRzGEV4Nf-8" target="IR5VrkFibrSQRzGEV4Nf-12" edge="1">
          <mxGeometry relative="1" as="geometry" />
        </mxCell>
        <mxCell id="IR5VrkFibrSQRzGEV4Nf-15" style="rounded=0;orthogonalLoop=1;jettySize=auto;html=1;exitX=1;exitY=0.75;exitDx=0;exitDy=0;entryX=0;entryY=0.5;entryDx=0;entryDy=0;strokeWidth=1;" parent="1" source="IR5VrkFibrSQRzGEV4Nf-8" target="IR5VrkFibrSQRzGEV4Nf-14" edge="1">
          <mxGeometry relative="1" as="geometry" />
        </mxCell>
        <mxCell id="IR5VrkFibrSQRzGEV4Nf-8" value="Worker" style="rounded=0;whiteSpace=wrap;html=1;strokeWidth=1;" parent="1" vertex="1">
          <mxGeometry x="429" y="322.5" width="120" height="60" as="geometry" />
        </mxCell>
        <mxCell id="IR5VrkFibrSQRzGEV4Nf-62" style="rounded=0;orthogonalLoop=1;jettySize=auto;html=1;exitX=1;exitY=0.5;exitDx=0;exitDy=0;entryX=0.5;entryY=0;entryDx=0;entryDy=0;startArrow=classic;startFill=1;strokeWidth=1;" parent="1" source="IR5VrkFibrSQRzGEV4Nf-9" target="IR5VrkFibrSQRzGEV4Nf-55" edge="1">
          <mxGeometry relative="1" as="geometry" />
        </mxCell>
        <mxCell id="IR5VrkFibrSQRzGEV4Nf-9" value="s-isync" style="shape=process;whiteSpace=wrap;html=1;backgroundOutline=1;strokeWidth=1;" parent="1" vertex="1">
          <mxGeometry x="607" y="292.5" width="90" height="30" as="geometry" />
        </mxCell>
        <mxCell id="IR5VrkFibrSQRzGEV4Nf-64" style="rounded=0;orthogonalLoop=1;jettySize=auto;html=1;exitX=1;exitY=0.5;exitDx=0;exitDy=0;entryX=0.5;entryY=0;entryDx=0;entryDy=0;startArrow=classic;startFill=1;strokeWidth=1;" parent="1" source="IR5VrkFibrSQRzGEV4Nf-12" target="IR5VrkFibrSQRzGEV4Nf-55" edge="1">
          <mxGeometry relative="1" as="geometry" />
        </mxCell>
        <mxCell id="IR5VrkFibrSQRzGEV4Nf-12" value="s-isync" style="shape=process;whiteSpace=wrap;html=1;backgroundOutline=1;strokeWidth=1;" parent="1" vertex="1">
          <mxGeometry x="607" y="337.5" width="90" height="30" as="geometry" />
        </mxCell>
        <mxCell id="IR5VrkFibrSQRzGEV4Nf-65" style="rounded=0;orthogonalLoop=1;jettySize=auto;html=1;exitX=1;exitY=0.5;exitDx=0;exitDy=0;entryX=0.5;entryY=0;entryDx=0;entryDy=0;startArrow=classic;startFill=1;strokeWidth=1;" parent="1" source="IR5VrkFibrSQRzGEV4Nf-14" target="IR5VrkFibrSQRzGEV4Nf-55" edge="1">
          <mxGeometry relative="1" as="geometry" />
        </mxCell>
        <mxCell id="IR5VrkFibrSQRzGEV4Nf-14" value="s-isync" style="shape=process;whiteSpace=wrap;html=1;backgroundOutline=1;strokeWidth=1;" parent="1" vertex="1">
          <mxGeometry x="607" y="382.5" width="90" height="30" as="geometry" />
        </mxCell>
        <mxCell id="IR5VrkFibrSQRzGEV4Nf-17" value="iRODS" style="shape=cylinder3;whiteSpace=wrap;html=1;boundedLbl=1;backgroundOutline=1;size=15;strokeWidth=1;" parent="1" vertex="1">
          <mxGeometry x="872" y="312.5" width="60" height="80" as="geometry" />
        </mxCell>
        <mxCell id="IR5VrkFibrSQRzGEV4Nf-26" style="rounded=0;orthogonalLoop=1;jettySize=auto;html=1;exitX=0.75;exitY=0;exitDx=0;exitDy=0;entryX=0.25;entryY=1;entryDx=0;entryDy=0;startArrow=classic;startFill=1;strokeWidth=1;" parent="1" source="IR5VrkFibrSQRzGEV4Nf-21" target="IR5VrkFibrSQRzGEV4Nf-8" edge="1">
          <mxGeometry relative="1" as="geometry" />
        </mxCell>
        <mxCell id="IR5VrkFibrSQRzGEV4Nf-33" style="edgeStyle=orthogonalEdgeStyle;rounded=0;orthogonalLoop=1;jettySize=auto;html=1;exitX=0.5;exitY=1;exitDx=0;exitDy=0;entryX=0;entryY=0.5;entryDx=0;entryDy=0;strokeWidth=1;" parent="1" source="IR5VrkFibrSQRzGEV4Nf-31" target="IR5VrkFibrSQRzGEV4Nf-1" edge="1">
          <mxGeometry relative="1" as="geometry" />
        </mxCell>
        <mxCell id="IR5VrkFibrSQRzGEV4Nf-31" value="client" style="rounded=0;whiteSpace=wrap;html=1;strokeWidth=1;" parent="1" vertex="1">
          <mxGeometry x="75" y="170" width="120" height="60" as="geometry" />
        </mxCell>
        <mxCell id="IR5VrkFibrSQRzGEV4Nf-34" value="" style="image;sketch=0;aspect=fixed;html=1;points=[];align=center;fontSize=12;image=img/lib/mscae/Docker.svg;strokeWidth=1;" parent="1" vertex="1">
          <mxGeometry x="448.11" y="568" width="24.39" height="20" as="geometry" />
        </mxCell>
        <mxCell id="IR5VrkFibrSQRzGEV4Nf-38" value="" style="image;sketch=0;aspect=fixed;html=1;points=[];align=center;fontSize=12;image=img/lib/mscae/Docker.svg;strokeWidth=1;" parent="1" vertex="1">
          <mxGeometry x="432" y="283" width="24.39" height="20" as="geometry" />
        </mxCell>
        <mxCell id="IR5VrkFibrSQRzGEV4Nf-39" value="syscall" style="text;html=1;align=center;verticalAlign=middle;whiteSpace=wrap;rounded=0;strokeWidth=1;" parent="1" vertex="1">
          <mxGeometry x="546" y="333" width="60" height="20" as="geometry" />
        </mxCell>
        <mxCell id="IR5VrkFibrSQRzGEV4Nf-41" value="syscall" style="text;html=1;align=center;verticalAlign=middle;whiteSpace=wrap;rounded=0;rotation=28;strokeWidth=1;" parent="1" vertex="1">
          <mxGeometry x="547" y="360" width="60" height="20" as="geometry" />
        </mxCell>
        <mxCell id="IR5VrkFibrSQRzGEV4Nf-42" value="syscall" style="text;html=1;align=center;verticalAlign=middle;whiteSpace=wrap;rounded=0;rotation=332;strokeWidth=1;" parent="1" vertex="1">
          <mxGeometry x="543" y="306" width="60" height="20" as="geometry" />
        </mxCell>
        <mxCell id="IR5VrkFibrSQRzGEV4Nf-45" value="task" style="shape=note;whiteSpace=wrap;html=1;backgroundOutline=1;darkOpacity=0.05;size=13;strokeWidth=1;fillColor=#e1d5e7;strokeColor=#9673a6;" parent="1" vertex="1">
          <mxGeometry x="113" y="275" width="44" height="55" as="geometry" />
        </mxCell>
        <mxCell id="IR5VrkFibrSQRzGEV4Nf-77" style="rounded=0;orthogonalLoop=1;jettySize=auto;html=1;exitX=0.5;exitY=1;exitDx=0;exitDy=0;startArrow=classic;startFill=1;" parent="1" source="IR5VrkFibrSQRzGEV4Nf-21" target="IR5VrkFibrSQRzGEV4Nf-76" edge="1">
          <mxGeometry relative="1" as="geometry" />
        </mxCell>
        <mxCell id="IR5VrkFibrSQRzGEV4Nf-21" value="" style="rounded=1;whiteSpace=wrap;html=1;dashed=1;strokeWidth=1;fillColor=#dae8fc;strokeColor=#6c8ebf;" parent="1" vertex="1">
          <mxGeometry x="325" y="460" width="179" height="30" as="geometry" />
        </mxCell>
        <mxCell id="IR5VrkFibrSQRzGEV4Nf-66" style="rounded=0;orthogonalLoop=1;jettySize=auto;html=1;exitX=0.5;exitY=1;exitDx=0;exitDy=0;startArrow=classic;startFill=1;strokeWidth=1;" parent="1" source="IR5VrkFibrSQRzGEV4Nf-55" target="IR5VrkFibrSQRzGEV4Nf-17" edge="1">
          <mxGeometry relative="1" as="geometry" />
        </mxCell>
        <mxCell id="IR5VrkFibrSQRzGEV4Nf-55" value="irods protocol (go-irodsclient)" style="rounded=1;whiteSpace=wrap;html=1;dashed=1;rotation=270;strokeWidth=1;fillColor=#dae8fc;strokeColor=#6c8ebf;" parent="1" vertex="1">
          <mxGeometry x="713" y="337.5" width="160" height="30" as="geometry" />
        </mxCell>
        <mxCell id="IR5VrkFibrSQRzGEV4Nf-60" style="rounded=0;orthogonalLoop=1;jettySize=auto;html=1;exitX=1;exitY=0.5;exitDx=0;exitDy=0;entryX=0;entryY=0.5;entryDx=0;entryDy=0;startArrow=classic;startFill=1;strokeWidth=1;" parent="1" source="IR5VrkFibrSQRzGEV4Nf-56" target="IR5VrkFibrSQRzGEV4Nf-21" edge="1">
          <mxGeometry relative="1" as="geometry" />
        </mxCell>
        <mxCell id="IR5VrkFibrSQRzGEV4Nf-56" value="Asynqmon" style="rounded=0;whiteSpace=wrap;html=1;strokeWidth=1;fillColor=#f5f5f5;fontColor=#333333;strokeColor=#666666;" parent="1" vertex="1">
          <mxGeometry x="157" y="445" width="120" height="60" as="geometry" />
        </mxCell>
        <mxCell id="IR5VrkFibrSQRzGEV4Nf-57" value="" style="image;sketch=0;aspect=fixed;html=1;points=[];align=center;fontSize=12;image=img/lib/mscae/Docker.svg;strokeWidth=1;" parent="1" vertex="1">
          <mxGeometry x="244" y="449" width="24.39" height="20" as="geometry" />
        </mxCell>
        <mxCell id="IR5VrkFibrSQRzGEV4Nf-70" style="edgeStyle=orthogonalEdgeStyle;rounded=0;orthogonalLoop=1;jettySize=auto;html=1;exitX=0.5;exitY=0.5;exitDx=0;exitDy=0;exitPerimeter=0;entryX=0;entryY=0.5;entryDx=0;entryDy=0;" parent="1" source="IR5VrkFibrSQRzGEV4Nf-67" target="IR5VrkFibrSQRzGEV4Nf-56" edge="1">
          <mxGeometry relative="1" as="geometry" />
        </mxCell>
        <mxCell id="IR5VrkFibrSQRzGEV4Nf-67" value="Admin" style="shape=umlActor;verticalLabelPosition=bottom;verticalAlign=top;html=1;outlineConnect=0;" parent="1" vertex="1">
          <mxGeometry x="70" y="445" width="30" height="60" as="geometry" />
        </mxCell>
        <mxCell id="IR5VrkFibrSQRzGEV4Nf-73" style="edgeStyle=orthogonalEdgeStyle;rounded=0;orthogonalLoop=1;jettySize=auto;html=1;exitX=0.5;exitY=1;exitDx=0;exitDy=0;exitPerimeter=0;endArrow=none;endFill=0;" parent="1" source="IR5VrkFibrSQRzGEV4Nf-71" target="IR5VrkFibrSQRzGEV4Nf-37" edge="1">
          <mxGeometry relative="1" as="geometry" />
        </mxCell>
        <mxCell id="IR5VrkFibrSQRzGEV4Nf-74" value="bindmount" style="edgeLabel;html=1;align=center;verticalAlign=middle;resizable=0;points=[];" parent="IR5VrkFibrSQRzGEV4Nf-73" vertex="1" connectable="0">
          <mxGeometry x="-0.1153" y="1" relative="1" as="geometry">
            <mxPoint as="offset" />
          </mxGeometry>
        </mxCell>
        <mxCell id="IR5VrkFibrSQRzGEV4Nf-71" value="host filesystem" style="shape=cylinder3;whiteSpace=wrap;html=1;boundedLbl=1;backgroundOutline=1;size=15;" parent="1" vertex="1">
          <mxGeometry x="538" y="110" width="60" height="80" as="geometry" />
        </mxCell>
        <mxCell id="IR5VrkFibrSQRzGEV4Nf-19" value="" style="verticalLabelPosition=bottom;html=1;verticalAlign=top;strokeWidth=2;shape=mxgraph.lean_mapping.physical_pull;pointerEvents=1;aspect=fixed;" parent="1" vertex="1">
          <mxGeometry x="337.5" y="466" width="16" height="16" as="geometry" />
        </mxCell>
        <mxCell id="IR5VrkFibrSQRzGEV4Nf-20" value="task scheduler (asynq)" style="text;html=1;align=center;verticalAlign=middle;whiteSpace=wrap;rounded=0;strokeWidth=1;" parent="1" vertex="1">
          <mxGeometry x="349.5" y="459" width="141" height="30" as="geometry" />
        </mxCell>
      </root>
    </mxGraphModel>
  </diagram>
</mxfile>
